<?xml version="1.0" encoding="utf-8"?>
<!-- Generator: Adobe Illustrator 25.0.1, SVG Export Plug-In . SVG Version: 6.00 Build 0)  -->
<svg version="1.0"
	 id="svg1315" inkscape:version="0.92.0 r15299" xmlns:cc="http://creativecommons.org/ns#" xmlns:dc="http://purl.org/dc/elements/1.1/" xmlns:inkscape="http://www.inkscape.org/namespaces/inkscape" xmlns:rdf="http://www.w3.org/1999/02/22-rdf-syntax-ns#" xmlns:sodipodi="http://sodipodi.sourceforge.net/DTD/sodipodi-0.dtd" xmlns:svg="http://www.w3.org/2000/svg"
	 xmlns="http://www.w3.org/2000/svg" xmlns:xlink="http://www.w3.org/1999/xlink" x="0px" y="0px" viewBox="0 0 88 56"
	 style="enable-background:new 0 0 88 56;" xml:space="preserve">
<style type="text/css">
	.st0{fill-rule:evenodd;clip-rule:evenodd;fill:#FF4C00;}
	.st1{fill:#FF4C00;}
</style>
<sodipodi:namedview  bordercolor="#666666" borderopacity="1.0" fit-margin-bottom="0" fit-margin-left="0" fit-margin-right="0" fit-margin-top="0" id="base" inkscape:current-layer="layer1" inkscape:cx="33.496605" inkscape:cy="8.4822029" inkscape:document-units="mm" inkscape:pageopacity="0.0" inkscape:pageshadow="2" inkscape:window-height="744" inkscape:window-maximized="1" inkscape:window-width="1280" inkscape:window-x="-4" inkscape:window-y="-4" inkscape:zoom="13.389417" pagecolor="#ffffff" showgrid="false" units="px">
	</sodipodi:namedview>
<g id="layer1" transform="translate(-3.6105731,-146.3245)" inkscape:groupmode="layer" inkscape:label="Layer 1">
	<g id="g1292" transform="translate(-133.27447,-201.7579)">
		<path id="Path" inkscape:connector-curvature="0" class="st0" d="M171.2,383.4c-1.9,0-2.9-1-2.9-2.8v-5.3h-0.7
			c-0.3,0-0.6-0.1-0.8-0.4c-0.2-0.2-0.3-0.5-0.3-0.8c0-0.6,0.5-1.1,1.2-1.1h0.7v-1.6c0.1-0.7,0.6-1.2,1.4-1.2c0.7,0,1.3,0.5,1.4,1.2
			v1.6h1.1c0.6,0,1.1,0.5,1.1,1.2c0,0.6-0.5,1.1-1.1,1.2H171v4.5c0,0.8,0.5,1.1,0.9,1.1h0.2c0.8,0,1.2,0.5,1.2,1.1
			S173,383.4,171.2,383.4L171.2,383.4z"/>
		<path id="Shape" inkscape:connector-curvature="0" class="st1" d="M179.7,383.4c-3.4,0-5.4-2.4-5.4-5.3c0-2.9,2-5.3,5.4-5.3
			c3.4,0,5.4,2.4,5.4,5.3C185.2,381,183.1,383.4,179.7,383.4z M179.7,375.2c-1.7,0-2.6,1.4-2.6,2.9c0,1.6,0.9,2.9,2.6,2.9
			c1.7,0,2.6-1.4,2.6-2.9C182.4,376.6,181.4,375.2,179.7,375.2z"/>
		<path id="path1234" inkscape:connector-curvature="0" class="st1" d="M194.7,383.3h-0.2c-0.2,0-1.2-0.2-1.2-1.2
			c-0.7,0.8-1.9,1.3-3.2,1.3c-1.6,0-3.6-1.1-3.6-3.3c0-2.4,1.9-3.3,3.6-3.3c1.4,0,2.6,0.4,3.2,1.2v-1.4c0-1-0.9-1.7-2.2-1.7
			c-0.8,0-1.6,0.2-2.3,0.6c-0.1,0.1-0.3,0.1-0.5,0.1c-0.6,0-1-0.5-1-1c0-0.2,0.1-0.4,0.1-0.5c0.6-1,2.9-1.4,4.1-1.4
			c2.3,0,4.5,0.9,4.5,3.8v5.3C196,382.7,195.4,383.3,194.7,383.3L194.7,383.3z M193.3,379.5c-0.4-0.6-1.3-0.9-2.2-0.9
			c-1.1,0-1.9,0.5-1.9,1.5c0,0.9,0.9,1.5,1.9,1.5c0.9,0,1.7-0.3,2.2-0.9V379.5z"/>
		<path id="path1236" inkscape:connector-curvature="0" class="st0" d="M202.4,383.4c-1.3,0-3.5-0.4-4.1-1.3
			c-0.1-0.2-0.2-0.4-0.2-0.6c0-0.6,0.5-1.1,1.1-1.1c0.2,0,0.4,0.1,0.6,0.2c0.8,0.5,1.9,0.8,2.8,0.8c1.2,0,1.7-0.5,1.7-1.1
			c0-1.7-6.1-0.3-6.1-4.3c0-1.7,1.5-3.2,4.2-3.2c1.3,0,3.2,0.4,3.7,1.2c0.1,0.2,0.2,0.3,0.2,0.5c0,0.6-0.5,1-1.1,1
			c-0.2,0-0.4,0-0.5-0.1c-0.7-0.4-1.5-0.6-2.3-0.6c-1,0-1.6,0.4-1.6,1c0,1.5,6.1,0.2,6.1,4.3C206.8,382,205.2,383.4,202.4,383.4
			L202.4,383.4z"/>
		<path id="path1238" inkscape:connector-curvature="0" class="st0" d="M212.2,383.4c-1.9,0-2.9-1-2.9-2.8v-5.3h-0.7
			c-0.3,0-0.6-0.1-0.8-0.4c-0.2-0.2-0.3-0.5-0.3-0.8c0-0.6,0.5-1.1,1.2-1.1h0.7v-1.6c0.1-0.7,0.6-1.2,1.4-1.2c0.7,0,1.3,0.5,1.4,1.2
			v1.6h1.1c0.6,0,1.1,0.5,1.1,1.2c0,0.6-0.5,1.1-1.1,1.2H212v4.5c0,0.8,0.5,1.1,0.9,1.1h0.2c0.8,0,1.2,0.5,1.2,1.1
			S214,383.4,212.2,383.4L212.2,383.4z"/>
		<path id="path1240" inkscape:connector-curvature="0" class="st1" d="M164.8,379.3c0-1.1,0-2.2-0.1-3.3c-0.1-0.7-0.3-1.7-1.1-1.9
			c0.1,0,0.2,0,0.3,0c0.9-0.5,0.9-1.7,0.5-2.6c-0.4-1.1-1.5-2-2.5-2.5c-3.7-1.9-8.7-1.8-12.2,0.4c-0.9,0.6-2,1.7-1.5,2.9
			c0.1,0.3,0.3,0.6,0.6,0.8c0.1,0.1,0.4,0.4,0.4,0.4c-0.5,0.7-0.8,1.2-1.1,2c-0.7,2.4-0.6,3.9-0.4,5.8c0.1,1.2,0.5,2.9,1.9,3.1
			c1.1,0.2,2.3-0.2,3.4-0.3c1.2-0.1,2.5-0.4,3.7-0.3c1.7,0,3.5,0.5,5.2,0.5c0.9,0,2.5,0.1,2.7-1.1c0.3-1.2,0.3-2.4,0.3-3.5
			C164.8,379.5,164.8,379.4,164.8,379.3L164.8,379.3z M162.8,381.3c-0.4,1-1.7,0.9-2.5,0.8c-1.3-0.1-2.5-0.4-3.8-0.5
			c-1.1,0-2.3,0.2-3.4,0.4c-0.8,0.2-2,0.7-2.7,0c-0.8-0.7-1-1.9-1-2.9c0-0.9,0.1-1.8,0.3-2.7c0.1-0.6,0.3-1.1,0.5-1.6
			c0.3-0.8,0.7-1.2,0.8-1.2c-0.2-0.2-0.5-0.4-0.6-0.7c-0.6-1.2,0.9-2.2,1.6-2.5c2.7-1.2,6.5-1.1,9.1,0.5c0.8,0.5,2.4,2.2,0.9,3
			c0.9,0.4,1.1,1.7,1.2,2.6c0.2,1.5,0.1,2.9-0.1,4.4C162.9,381,162.8,381.1,162.8,381.3L162.8,381.3z"/>
	</g>
</g>
</svg>
